HIERARCHY
ROOT Hips
{
	OFFSET 0.000000 0.000000 0.000000 
	CHANNELS 6 Xposition Yposition Zposition Zrotation Yrotation Xrotation
	JOINT LeftUpLeg
	{
		OFFSET 1.363060 -1.794630 0.839290 
		CHANNELS 3 Zrotation Yrotation Xrotation
		JOINT LeftLeg
		{
			OFFSET 2.448110 -6.726130 0.000000 
			CHANNELS 3 Zrotation Yrotation Xrotation
			JOINT LeftFoot
			{
				OFFSET 2.562200 -7.039590 0.000000 
				CHANNELS 3 Zrotation Yrotation Xrotation
				JOINT LeftToeBase
				{
					OFFSET 0.157640 -0.433110 2.322550 
					CHANNELS 3 Zrotation Yrotation Xrotation
					End Site
					{
						OFFSET 0.000000 0.000000 0.000000 
					}
				}
			}
		}
	}
	JOINT RightUpLeg
	{
		OFFSET -1.305520 -1.794630 0.839290 
		CHANNELS 3 Zrotation Yrotation Xrotation
		JOINT RightLeg
		{
			OFFSET -2.542530 -6.985550 0.000000 
			CHANNELS 3 Zrotation Yrotation Xrotation
			JOINT RightFoot
			{
				OFFSET -2.568260 -7.056230 0.000000 
				CHANNELS 3 Zrotation Yrotation Xrotation
				JOINT RightToeBase
				{
					OFFSET -0.164730 -0.452590 2.363150 
					CHANNELS 3 Zrotation Yrotation Xrotation
					End Site
					{
						OFFSET 0.000000 0.000000 0.000000 
					}
				}
			}
		}
	}
	JOINT Spine
	{
		OFFSET 0.028270 2.035590 -0.193380 
		CHANNELS 3 Zrotation Yrotation Xrotation
		JOINT Spine1
		{
			OFFSET 0.056720 2.048850 -0.042750 
			CHANNELS 3 Zrotation Yrotation Xrotation
			JOINT Neck1
			{
				OFFSET -0.054170 1.746240 0.172020 
				CHANNELS 3 Zrotation Yrotation Xrotation
				JOINT Head
				{
					OFFSET 0.104070 1.761360 -0.123970 
					CHANNELS 3 Zrotation Yrotation Xrotation
					End Site
					{
						OFFSET 0.000000 0.000000 0.000000 
					}
				}
			}
			JOINT LeftArm
			{
				OFFSET 3.362410 1.200890 -0.311210 
				CHANNELS 3 Zrotation Yrotation Xrotation
				JOINT LeftForeArm
				{
					OFFSET 4.983000 -0.000000 -0.000000 
					CHANNELS 3 Zrotation Yrotation Xrotation
					JOINT LeftHand
					{
						OFFSET 3.483560 -0.000000 -0.000000 
						CHANNELS 3 Zrotation Yrotation Xrotation
						JOINT LeftHandIndex1
						{
							OFFSET 0.715260 -0.000000 -0.000000 
							CHANNELS 3 Zrotation Yrotation Xrotation
							End Site
							{
								OFFSET 0.000000 0.000000 0.000000 
							}
						}
					}
				}
			}
			JOINT RightArm
			{
				OFFSET -3.136600 1.374050 -0.404650 
				CHANNELS 3 Zrotation Yrotation Xrotation
				JOINT RightForeArm
				{
					OFFSET -5.241900 -0.000000 -0.000000 
					CHANNELS 3 Zrotation Yrotation Xrotation
					JOINT RightHand
					{
						OFFSET -3.444170 -0.000000 -0.000000 
						CHANNELS 3 Zrotation Yrotation Xrotation
						JOINT RightHandIndex1
						{
							OFFSET -0.622530 -0.000000 -0.000000 
							CHANNELS 3 Zrotation Yrotation Xrotation
							End Site
							{
								OFFSET 0.000000 0.000000 0.000000 
							}
						}
					}
				}
			}
		}
	}
}
MOTION
Frames: 14
Frame Time: 0.041667
-2.617560 9.044858 13.224223 170.538670 -0.892325 -109.694820 -1.757418 -19.884836 -81.762908 32.147355 17.830427 127.783436 -0.058315 -12.610369 20.124435 2.044100 -8.957400 -25.662100 10.135483 11.178453 -22.831492 -7.984091 -17.223540 54.168177 -179.337076 12.813542 -25.616455 -5.932600 14.362700 -44.710500 0.199020 -2.196472 -2.656496 -3.722476 -1.024417 -1.188742 12.174766 -3.205893 -13.412508 4.955200 -3.566100 -10.075000 -64.351499 -58.227914 35.167810 57.372981 -51.544854 -31.480933 0.835598 -0.046743 28.099050 -7.125000 0.000000 0.000000 54.901685 57.903765 11.076656 -48.111027 43.484282 -21.899275 -0.845439 -2.567384 27.969676 7.125000 0.000000 0.000000 
-2.659434 9.125711 13.078221 171.243685 -0.444011 -108.945226 -1.838838 -19.492483 -81.498049 31.716168 18.112866 126.358147 -0.308005 -14.259403 17.913642 2.093400 -9.057900 -25.976500 9.602202 11.161497 -24.332723 -7.935806 -17.341557 54.666579 179.728435 5.664614 -19.842606 -1.020900 6.427900 -18.031200 0.274024 -2.148099 -2.750298 -3.133749 -1.044116 -1.313693 12.097133 -2.973511 -13.429824 4.962400 -3.446400 -10.061600 -62.118952 -61.326475 31.647370 54.988521 -50.198883 -29.352232 0.828369 0.072520 27.992684 -7.125000 0.000000 0.000000 55.897061 58.388719 13.022676 -47.393930 43.205688 -21.338455 -0.879186 -2.549662 28.399166 7.125000 0.000000 0.000000 
-2.710439 9.204447 12.916294 172.206287 0.025762 -108.953481 -2.422624 -18.949667 -79.985721 31.152559 18.467822 124.462504 -0.466481 -15.178599 15.339294 2.848600 -10.445800 -30.432900 9.280476 11.010043 -25.166739 -8.181852 -17.520800 55.381157 179.177357 0.865646 -12.683070 -0.775000 -5.620800 15.688100 0.329397 -2.000621 -2.791241 -2.681543 -1.020795 -1.683466 11.963868 -2.851076 -13.298858 4.897500 -3.355100 -9.942300 -59.150403 -64.110228 27.574085 51.862466 -48.392427 -26.605848 0.808042 0.216310 27.186855 -7.125000 0.000000 0.000000 56.833857 58.728726 14.771743 -46.677948 42.929452 -20.803473 -0.918112 -2.527502 28.568591 7.125000 0.000000 0.000000 
-2.769018 9.286078 12.740558 173.170102 0.306054 -109.446971 -3.167272 -18.562958 -77.658590 30.445369 18.891987 122.092065 -0.502045 -15.559904 14.227798 2.436800 -9.722000 -28.081100 9.277972 10.704086 -25.645677 -8.545846 -17.727737 56.348660 179.000628 -0.563450 -9.318726 -0.978100 -6.295600 17.644600 0.398872 -1.944829 -2.791570 -2.284524 -1.055458 -2.199890 11.881153 -2.727050 -13.082340 4.861400 -3.248800 -9.745900 -55.321440 -66.234722 22.527290 48.225552 -46.283259 -23.533485 0.775024 0.363483 26.445455 -7.125000 0.000000 0.000000 57.551715 59.163591 16.547518 -45.964283 42.552223 -20.247890 -0.950624 -2.522880 28.365523 7.125000 0.000000 0.000000 
-2.827263 9.367933 12.561703 174.095210 0.528164 -110.312879 -4.135336 -18.209880 -74.801245 29.609156 19.336747 119.374132 -0.571563 -16.435427 12.784948 2.302300 -9.469200 -27.274400 9.427255 10.384007 -25.899608 -9.034960 -17.974887 57.651315 178.803061 -1.833308 -6.201799 -1.479700 -7.686000 21.764200 0.485645 -1.956603 -2.761303 -1.779792 -1.138054 -2.857304 11.866722 -2.505128 -12.999233 4.898800 -3.109400 -9.625600 -50.201912 -67.695278 16.007374 44.319436 -44.165248 -20.467764 0.717182 0.488537 25.784834 -7.125000 0.000000 0.000000 57.930011 59.636465 18.335817 -45.282129 42.084805 -19.691223 -0.971562 -2.530873 28.163426 7.125000 0.000000 0.000000 
-2.871253 9.459810 12.381846 174.916201 0.862636 -110.487296 -4.975308 -17.827397 -72.924015 28.697946 19.773889 116.445278 -0.591020 -16.994449 11.557963 2.381800 -9.619700 -27.753800 9.417755 10.306496 -27.068703 -9.611901 -18.336239 59.344866 178.772248 -2.162659 -5.596631 -1.396000 -7.474600 21.129200 0.579498 -1.954410 -2.776599 -1.057882 -1.190907 -3.267100 11.857930 -2.169020 -13.086442 4.974200 -2.939600 -9.640900 -43.562658 -68.889911 7.708362 40.422131 -42.380088 -17.733783 0.626437 0.544608 25.447313 -7.125000 0.000000 0.000000 58.089594 60.048074 20.190082 -44.481576 41.559397 -19.067367 -0.981328 -2.529627 28.103895 7.125000 0.000000 0.000000 
-2.905554 9.543447 12.210676 175.893228 0.974822 -111.326736 -5.798195 -16.966556 -70.267653 27.835655 20.110903 113.739449 -0.498958 -16.353154 11.832168 2.722200 -10.231200 -29.728600 9.852394 10.376329 -27.822917 -10.359205 -18.735706 61.601893 178.704250 -2.809831 -7.201285 -0.828700 -5.807700 16.227600 0.671160 -1.849881 -2.759306 -0.465834 -1.179662 -3.715109 11.823536 -1.842200 -13.231603 5.031800 -2.776700 -9.657300 -35.197346 -70.153468 -2.230251 36.844084 -40.761036 -15.431073 0.538690 0.542192 25.413852 -7.125000 0.000000 0.000000 58.239546 60.473584 22.066371 -43.634550 40.962052 -18.443990 -0.995259 -2.518472 28.063329 7.125000 0.000000 0.000000 
-2.936291 9.620178 12.046856 176.947427 0.974906 -111.987129 -6.397133 -15.802909 -67.863188 27.090843 20.339187 111.449815 -0.422429 -15.802004 11.907194 2.677100 -10.153000 -29.473600 10.402835 10.701123 -29.034370 -11.268515 -19.220602 64.353411 178.615295 -3.637882 -9.410273 -0.664600 -5.213800 14.519400 0.760197 -1.668492 -2.737350 0.018170 -1.119276 -3.690323 12.922276 -1.215265 -12.706311 5.082500 0.613500 -9.302700 -24.149764 -71.321893 -14.319743 33.687142 -39.100910 -13.492987 0.457703 0.530088 25.131464 -7.125000 0.000000 0.000000 58.696753 61.177451 24.085099 -42.822388 40.389487 -17.868196 -1.021309 -2.488139 28.283340 7.125000 0.000000 0.000000 
-2.960012 9.688223 11.912325 177.843499 1.122991 -111.838774 -6.867732 -14.716865 -66.717164 26.492335 20.490702 109.627020 -0.379175 -15.549232 11.491652 2.512600 -9.860800 -28.527000 10.585876 11.310490 -31.464329 -12.377635 -19.838649 67.725769 178.664680 -3.476177 -11.924895 -0.245100 -3.186100 8.797400 0.830073 -1.527752 -2.750730 0.526222 -1.081441 -3.353691 12.874148 -0.980901 -12.755794 5.145300 0.774300 -9.240400 -12.363291 -71.743336 -26.541854 31.196115 -37.494494 -11.994354 0.386929 0.538064 24.656897 -7.125000 0.000000 0.000000 59.419163 62.074572 26.120131 -41.885799 39.762364 -17.219209 -1.056370 -2.462819 28.861877 7.125000 0.000000 0.000000 
-2.981394 9.757604 11.769441 178.769159 1.170508 -111.858409 -7.265819 -13.594135 -65.400225 25.900579 20.616737 107.837391 -0.289902 -14.716471 12.037775 2.929800 -10.580600 -30.878100 10.853087 12.007152 -33.929763 -13.675924 -20.446768 71.504889 178.638120 -4.150689 -12.618590 -0.212300 -2.966100 8.184400 0.895063 -1.360008 -2.752422 0.949656 -1.039684 -3.120513 12.822362 -0.783505 -12.830888 5.201600 0.909300 -9.216800 -1.896174 -71.345817 -37.111503 29.134370 -35.934168 -10.777984 0.339846 0.565474 24.427283 -7.125000 0.000000 0.000000 60.216670 62.992999 28.062159 -41.058029 39.168314 -16.631362 -1.096282 -2.457852 29.347553 7.125000 0.000000 0.000000 
-2.997654 9.820081 11.647718 179.584369 1.149918 -110.925817 -7.210215 -12.847463 -65.512845 25.369766 20.734168 106.214290 -0.254014 -14.466893 11.553778 3.175600 -10.974000 -32.192300 10.828854 12.983226 -37.808627 -15.172443 -21.127977 75.837572 178.651752 -4.416320 -14.073738 -0.010300 0.655300 -1.800700 0.935986 -1.043163 -2.784875 1.386318 -0.410893 -2.516348 12.714350 -0.590530 -12.768883 5.233300 1.037900 -9.178800 7.294379 -70.239587 -46.142080 27.351072 -34.468122 -9.766878 0.303619 0.598914 24.212224 -7.125000 0.000000 0.000000 61.308034 64.006350 30.085497 -40.386301 38.785473 -16.171586 -1.114520 -2.427807 29.650046 7.125000 0.000000 0.000000 
-3.012243 9.877658 11.508955 -179.783727 1.200671 -110.419006 -7.450657 -12.269246 -64.828448 24.758306 20.856019 104.376380 -0.203993 -14.070051 11.481749 3.332800 -11.215200 -33.009000 10.679667 13.832798 -41.321571 -16.770802 -21.674425 80.401596 178.679276 -4.601983 -15.085276 -0.090000 1.934700 -5.325300 1.002862 -0.969613 -2.790458 1.842229 -0.442369 -2.037999 12.584003 -0.410212 -12.680947 5.222700 1.145500 -9.134200 12.946343 -69.210558 -52.251114 26.262646 -33.535849 -9.176163 0.288595 0.614434 24.543851 -7.125000 0.000000 0.000000 62.395482 64.965499 31.835400 -39.565010 38.352887 -15.677488 -1.121065 -2.369527 29.881960 7.125000 0.000000 0.000000 
-3.027389 9.921536 11.388902 -179.213789 1.122403 -109.585093 -7.440347 -11.947169 -64.709195 24.203329 20.968158 102.695115 -0.156139 -13.582231 11.005634 3.256100 -11.098500 -32.612900 10.342806 14.787844 -45.576546 -18.535545 -22.148248 85.349335 178.656290 -5.940353 -15.173595 -0.071300 1.722800 -4.740300 1.082196 -0.939332 -2.817754 2.265946 -0.504606 -1.544616 12.549034 -0.266326 -12.579485 5.283600 1.244200 -9.111000 15.673555 -68.636395 -56.090001 25.584344 -32.939393 -8.821999 0.298113 0.619775 25.439876 -7.125000 0.000000 0.000000 63.656103 65.908566 33.490651 -38.602504 37.912100 -15.145110 -1.123925 -2.288476 30.105282 7.125000 0.000000 0.000000 
-3.039082 9.953721 11.274974 -178.683978 0.949978 -108.861683 -7.299891 -11.728933 -64.536961 23.675166 21.063209 101.110512 -0.133815 -13.518635 10.457376 3.391300 -11.303100 -33.308900 9.946481 15.699485 -49.943961 -20.405654 -22.448017 90.491723 178.614666 -9.430736 -14.004368 -0.069300 -1.699000 4.674400 1.168492 -0.896504 -2.847359 2.702130 -0.558412 -1.091782 12.515572 -0.259666 -12.545601 5.331100 1.269100 -9.114700 18.935899 -67.956803 -59.737022 24.363474 -31.806672 -8.172164 0.279206 0.652700 25.624979 -7.125000 0.000000 0.000000 65.199043 66.663794 35.049922 -37.710581 37.660915 -14.689959 -1.119957 -2.193144 30.404627 7.125000 0.000000 0.000000 
